<svg xmlns="http://www.w3.org/2000/svg" width="127.511" height="91.899" viewBox="0 0 127.511 91.899">
  <g id="Group_7" data-name="Group 7" transform="translate(-619 -163.275)">
    <g id="password" transform="translate(619 32.694)">
      <g id="Group_1" data-name="Group 1" transform="translate(0 197.747)">
        <path id="Path_1" data-name="Path 1" d="M24.948,207.334H18.661L21.8,201.89a2.772,2.772,0,0,0-4.8-2.772l-3.143,5.444-3.143-5.444a2.772,2.772,0,0,0-4.8,2.772l3.143,5.444H2.772a2.772,2.772,0,0,0,0,5.544H9.059l-3.143,5.444a2.772,2.772,0,0,0,1.015,3.787,2.733,2.733,0,0,0,1.386.371,2.773,2.773,0,0,0,2.406-1.386l3.138-5.444L17,221.094a2.771,2.771,0,0,0,2.406,1.386,2.732,2.732,0,0,0,1.386-.371,2.772,2.772,0,0,0,1.015-3.787l-3.149-5.444h6.287a2.772,2.772,0,1,0,0-5.544Z" transform="translate(0 -197.747)" fill="#fff"/>
        <path id="Path_2" data-name="Path 2" d="M152.949,207.334h-6.287l3.143-5.444a2.772,2.772,0,0,0-4.8-2.772l-3.143,5.444-3.143-5.444a2.772,2.772,0,0,0-4.8,2.772l3.143,5.444h-6.287a2.772,2.772,0,0,0,0,5.544h6.287l-3.143,5.444a2.772,2.772,0,0,0,1.015,3.787,2.733,2.733,0,0,0,1.386.371,2.773,2.773,0,0,0,2.406-1.386l3.138-5.444L145,221.094a2.771,2.771,0,0,0,2.406,1.386,2.732,2.732,0,0,0,1.386-.371,2.772,2.772,0,0,0,1.015-3.787l-3.149-5.444h6.286a2.772,2.772,0,1,0,0-5.544Z" transform="translate(-94.737 -197.747)" fill="#fff"/>
        <path id="Path_3" data-name="Path 3" d="M280.949,207.334h-6.287l3.143-5.444a2.772,2.772,0,0,0-4.8-2.772l-3.143,5.444-3.143-5.444a2.772,2.772,0,0,0-4.8,2.772l3.143,5.444h-6.287a2.772,2.772,0,0,0,0,5.544h6.287l-3.143,5.444a2.772,2.772,0,0,0,1.015,3.787,2.733,2.733,0,0,0,1.386.371,2.773,2.773,0,0,0,2.406-1.386l3.138-5.444L273,221.094a2.771,2.771,0,0,0,2.406,1.386,2.733,2.733,0,0,0,1.386-.371,2.772,2.772,0,0,0,1.015-3.787l-3.143-5.444h6.281a2.772,2.772,0,1,0,0-5.544Z" transform="translate(-189.473 -197.747)" fill="#fff"/>
        <path id="Path_4" data-name="Path 4" d="M408.947,207.335H402.66l3.143-5.444a2.772,2.772,0,0,0-4.8-2.772l-3.143,5.444-3.143-5.444a2.772,2.772,0,0,0-4.8,2.772l3.143,5.444h-6.287a2.772,2.772,0,0,0,0,5.544h6.287l-3.143,5.444a2.772,2.772,0,0,0,1.015,3.787,2.733,2.733,0,0,0,1.386.371,2.773,2.773,0,0,0,2.406-1.386l3.138-5.444L401,221.1a2.771,2.771,0,0,0,2.406,1.386,2.733,2.733,0,0,0,1.386-.371,2.772,2.772,0,0,0,1.015-3.787l-3.143-5.444h6.281a2.772,2.772,0,0,0,0-5.544Z" transform="translate(-284.208 -197.748)" fill="#fff"/>
      </g>
      <path id="Path_5" data-name="Path 5" d="M24.948,240.181H2.772a2.772,2.772,0,1,1,0-5.544H24.948a2.772,2.772,0,1,1,0,5.544Z" transform="translate(0 -27.303)" fill="#fff"/>
      <path id="Path_6" data-name="Path 6" d="M24.106,222.707a2.772,2.772,0,0,1-2.4-4.158l11.088-19.21a2.772,2.772,0,0,1,4.8,2.772L26.5,221.321A2.772,2.772,0,0,1,24.106,222.707Z" transform="translate(-15.79 -0.227)" fill="#fff"/>
      <path id="Path_7" data-name="Path 7" d="M35.35,222.708a2.772,2.772,0,0,1-2.4-1.386l-11.088-19.21a2.772,2.772,0,0,1,4.8-2.772l11.088,19.21a2.772,2.772,0,0,1-2.4,4.158Z" transform="translate(-15.946 -0.228)" fill="#fff"/>
      <path id="Path_8" data-name="Path 8" d="M152.948,240.18H130.772a2.772,2.772,0,1,1,0-5.544h22.176a2.772,2.772,0,0,1,0,5.544Z" transform="translate(-94.736 -27.303)" fill="#fff"/>
      <path id="Path_9" data-name="Path 9" d="M152.106,222.707a2.772,2.772,0,0,1-2.4-4.158l11.088-19.21a2.772,2.772,0,0,1,4.8,2.772L154.5,221.321A2.772,2.772,0,0,1,152.106,222.707Z" transform="translate(-110.526 -0.227)" fill="#fff"/>
      <path id="Path_10" data-name="Path 10" d="M163.35,222.708a2.772,2.772,0,0,1-2.4-1.386l-11.088-19.21a2.772,2.772,0,0,1,4.8-2.772l11.088,19.21a2.772,2.772,0,0,1-2.4,4.158Z" transform="translate(-110.683 -0.228)" fill="#fff"/>
      <path id="Path_11" data-name="Path 11" d="M280.948,240.18H258.772a2.772,2.772,0,1,1,0-5.544h22.176a2.772,2.772,0,1,1,0,5.544Z" transform="translate(-189.472 -27.303)" fill="#fff"/>
      <path id="Path_12" data-name="Path 12" d="M280.106,222.707a2.772,2.772,0,0,1-2.4-4.158l11.088-19.21a2.772,2.772,0,0,1,4.8,2.772L282.5,221.321A2.772,2.772,0,0,1,280.106,222.707Z" transform="translate(-205.262 -0.227)" fill="#fff"/>
      <path id="Path_13" data-name="Path 13" d="M291.35,222.708a2.772,2.772,0,0,1-2.4-1.386l-11.088-19.21a2.772,2.772,0,0,1,4.8-2.772l11.088,19.21a2.772,2.772,0,0,1-2.4,4.158Z" transform="translate(-205.419 -0.228)" fill="#fff"/>
      <path id="Path_14" data-name="Path 14" d="M408.948,240.18H386.772a2.772,2.772,0,1,1,0-5.544h22.176a2.772,2.772,0,1,1,0,5.544Z" transform="translate(-284.209 -27.303)" fill="#fff"/>
      <path id="Path_15" data-name="Path 15" d="M408.106,222.707a2.772,2.772,0,0,1-2.4-4.158l11.088-19.21a2.772,2.772,0,0,1,4.8,2.772L410.5,221.321A2.772,2.772,0,0,1,408.106,222.707Z" transform="translate(-299.999 -0.227)" fill="#fff"/>
      <path id="Path_16" data-name="Path 16" d="M419.35,222.708a2.772,2.772,0,0,1-2.4-1.386l-11.088-19.21a2.772,2.772,0,0,1,4.8-2.772l11.088,19.21a2.772,2.772,0,0,1-2.4,4.158Z" transform="translate(-300.155 -0.228)" fill="#fff"/>
    </g>
    <path id="Icon_awesome-ruler-horizontal" data-name="Icon awesome-ruler-horizontal" d="M120.132,65.533h-10.6V46.1a1.766,1.766,0,0,0-1.767-1.767h-3.533a1.766,1.766,0,0,0-1.767,1.767V65.533H88.333V46.1a1.766,1.766,0,0,0-1.767-1.767H83.033A1.766,1.766,0,0,0,81.266,46.1V65.533H67.133V46.1a1.766,1.766,0,0,0-1.767-1.767H61.833A1.766,1.766,0,0,0,60.066,46.1V65.533H45.933V46.1a1.766,1.766,0,0,0-1.767-1.767H40.633A1.766,1.766,0,0,0,38.866,46.1V65.533H24.733V46.1a1.766,1.766,0,0,0-1.767-1.767H19.433A1.766,1.766,0,0,0,17.667,46.1V65.533H7.067A7.067,7.067,0,0,1,0,58.466v-42.4A7.067,7.067,0,0,1,7.067,9H120.132a7.067,7.067,0,0,1,7.067,7.067v42.4A7.068,7.068,0,0,1,120.132,65.533Z" transform="translate(619.312 154.275)" fill="#fff"/>
  </g>
</svg>
